{
	"asset":{
		"generator":"Khronos glTF Blender I/O v3.5.30",
		"version":"2.0"
	},
	"scene":0,
	"scenes":[
		{
			"name":"Scene",
			"nodes":[
				0
			]
		}
	],
	"nodes":[
		{
			"mesh":0,
			"name":"Dispenser.001_1",
			"scale":[
				3.804737091064453,
				4.81516170501709,
				3.804737091064453
			],
			"translation":[
				0.22140884399414062,
				1.8624935150146484,
				1.6207847595214844
			]
		}
	],
	"animations":[
		{
			"channels":[
				{
					"sampler":0,
					"target":{
						"node":0,
						"path":"translation"
					}
				},
				{
					"sampler":1,
					"target":{
						"node":0,
						"path":"rotation"
					}
				},
				{
					"sampler":2,
					"target":{
						"node":0,
						"path":"scale"
					}
				}
			],
			"name":"Dispenser.001_1",
			"samplers":[
				{
					"input":15,
					"interpolation":"LINEAR",
					"output":16
				},
				{
					"input":15,
					"interpolation":"LINEAR",
					"output":17
				},
				{
					"input":15,
					"interpolation":"LINEAR",
					"output":18
				}
			]
		}
	],
	"materials":[
		{
			"alphaMode":"BLEND",
			"doubleSided":true,
			"name":"glass",
			"pbrMetallicRoughness":{
				"baseColorFactor":[
					0.3816710114479065,
					0.6839050650596619,
					0.8000000715255737,
					0.1385289579629898
				],
				"metallicFactor":0,
				"roughnessFactor":0.6000000238418579
			}
		},
		{
			"doubleSided":true,
			"name":"dark_grey.002",
			"pbrMetallicRoughness":{
				"baseColorFactor":[
					0.011612245813012123,
					0.014443841762840748,
					0.016807377338409424,
					1
				],
				"metallicFactor":0,
				"roughnessFactor":0.6000000238418579
			}
		},
		{
			"doubleSided":true,
			"name":"light_grey.001",
			"pbrMetallicRoughness":{
				"baseColorFactor":[
					0.04091520607471466,
					0.05286065861582756,
					0.057805441319942474,
					1
				],
				"metallicFactor":0,
				"roughnessFactor":0.6000000238418579
			}
		},
		{
			"doubleSided":true,
			"name":"Material.001",
			"pbrMetallicRoughness":{
				"baseColorFactor":[
					0.5204326510429382,
					0.5204326510429382,
					0.5204326510429382,
					1
				],
				"metallicFactor":0,
				"roughnessFactor":0.5
			}
		},
		{
			"doubleSided":true,
			"name":"Material.002",
			"pbrMetallicRoughness":{
				"baseColorFactor":[
					0.8000000715255737,
					0.044143691658973694,
					0.04943514242768288,
					1
				],
				"metallicFactor":0,
				"roughnessFactor":0.5
			}
		}
	],
	"meshes":[
		{
			"name":"Dispenser.001_1",
			"primitives":[
				{
					"attributes":{
						"POSITION":0,
						"NORMAL":1
					},
					"indices":2,
					"material":0
				},
				{
					"attributes":{
						"POSITION":3,
						"NORMAL":4
					},
					"indices":5,
					"material":1
				},
				{
					"attributes":{
						"POSITION":6,
						"NORMAL":7
					},
					"indices":8,
					"material":2
				},
				{
					"attributes":{
						"POSITION":9,
						"NORMAL":10
					},
					"indices":11,
					"material":3
				},
				{
					"attributes":{
						"POSITION":12,
						"NORMAL":13
					},
					"indices":14,
					"material":4
				}
			]
		}
	],
	"accessors":[
		{
			"bufferView":0,
			"componentType":5126,
			"count":152,
			"max":[
				1.339282512664795,
				4.512633323669434,
				1.3449054956436157
			],
			"min":[
				-1.3479609489440918,
				-0.6300097703933716,
				-1.3423372507095337
			],
			"type":"VEC3"
		},
		{
			"bufferView":1,
			"componentType":5126,
			"count":152,
			"type":"VEC3"
		},
		{
			"bufferView":2,
			"componentType":5123,
			"count":228,
			"type":"SCALAR"
		},
		{
			"bufferView":3,
			"componentType":5126,
			"count":2193,
			"max":[
				2.049473285675049,
				3.339538097381592,
				2.0550971031188965
			],
			"min":[
				-2.0581514835357666,
				-0.9548606872558594,
				-2.052527904510498
			],
			"type":"VEC3"
		},
		{
			"bufferView":4,
			"componentType":5126,
			"count":2193,
			"type":"VEC3"
		},
		{
			"bufferView":5,
			"componentType":5123,
			"count":2859,
			"type":"SCALAR"
		},
		{
			"bufferView":6,
			"componentType":5126,
			"count":380,
			"max":[
				1.6490516662597656,
				2.1914138793945312,
				1.6546754837036133
			],
			"min":[
				-1.6577301025390625,
				-1.001516342163086,
				-1.6521062850952148
			],
			"type":"VEC3"
		},
		{
			"bufferView":7,
			"componentType":5126,
			"count":380,
			"type":"VEC3"
		},
		{
			"bufferView":8,
			"componentType":5123,
			"count":576,
			"type":"SCALAR"
		},
		{
			"bufferView":9,
			"componentType":5126,
			"count":138,
			"max":[
				1.5239931344985962,
				2.0041909217834473,
				1.001284122467041
			],
			"min":[
				-1.0043411254882812,
				-0.9548606872558594,
				-1.0822052955627441
			],
			"type":"VEC3"
		},
		{
			"bufferView":10,
			"componentType":5126,
			"count":138,
			"type":"VEC3"
		},
		{
			"bufferView":11,
			"componentType":5123,
			"count":177,
			"type":"SCALAR"
		},
		{
			"bufferView":12,
			"componentType":5126,
			"count":4,
			"max":[
				1.5146028995513916,
				1.9413983821868896,
				-0.9468609094619751
			],
			"min":[
				1.4647510051727295,
				1.8705755472183228,
				-1.0214697122573853
			],
			"type":"VEC3"
		},
		{
			"bufferView":13,
			"componentType":5126,
			"count":4,
			"type":"VEC3"
		},
		{
			"bufferView":14,
			"componentType":5123,
			"count":6,
			"type":"SCALAR"
		},
		{
			"bufferView":15,
			"componentType":5126,
			"count":26,
			"max":[
				1.0416666666666667
			],
			"min":[
				0
			],
			"type":"SCALAR"
		},
		{
			"bufferView":16,
			"componentType":5126,
			"count":26,
			"type":"VEC3"
		},
		{
			"bufferView":17,
			"componentType":5126,
			"count":26,
			"type":"VEC4"
		},
		{
			"bufferView":18,
			"componentType":5126,
			"count":26,
			"type":"VEC3"
		}
	],
	"bufferViews":[
		{
			"buffer":0,
			"byteLength":1824,
			"byteOffset":0,
			"target":34962
		},
		{
			"buffer":0,
			"byteLength":1824,
			"byteOffset":1824,
			"target":34962
		},
		{
			"buffer":0,
			"byteLength":456,
			"byteOffset":3648,
			"target":34963
		},
		{
			"buffer":0,
			"byteLength":26316,
			"byteOffset":4104,
			"target":34962
		},
		{
			"buffer":0,
			"byteLength":26316,
			"byteOffset":30420,
			"target":34962
		},
		{
			"buffer":0,
			"byteLength":5718,
			"byteOffset":56736,
			"target":34963
		},
		{
			"buffer":0,
			"byteLength":4560,
			"byteOffset":62456,
			"target":34962
		},
		{
			"buffer":0,
			"byteLength":4560,
			"byteOffset":67016,
			"target":34962
		},
		{
			"buffer":0,
			"byteLength":1152,
			"byteOffset":71576,
			"target":34963
		},
		{
			"buffer":0,
			"byteLength":1656,
			"byteOffset":72728,
			"target":34962
		},
		{
			"buffer":0,
			"byteLength":1656,
			"byteOffset":74384,
			"target":34962
		},
		{
			"buffer":0,
			"byteLength":354,
			"byteOffset":76040,
			"target":34963
		},
		{
			"buffer":0,
			"byteLength":48,
			"byteOffset":76396,
			"target":34962
		},
		{
			"buffer":0,
			"byteLength":48,
			"byteOffset":76444,
			"target":34962
		},
		{
			"buffer":0,
			"byteLength":12,
			"byteOffset":76492,
			"target":34963
		},
		{
			"buffer":0,
			"byteLength":104,
			"byteOffset":76504
		},
		{
			"buffer":0,
			"byteLength":312,
			"byteOffset":76608
		},
		{
			"buffer":0,
			"byteLength":416,
			"byteOffset":76920
		},
		{
			"buffer":0,
			"byteLength":312,
			"byteOffset":77336
		}
	],
	"buffers":[
		{
			"byteLength":77648,
			"uri":"data:application/octet-stream;base64,"
		}
	]
}
